<svg width="500" height="400" viewBox="0 0 500 400" fill="none" xmlns="http://www.w3.org/2000/svg">
  <rect x="100" y="50" width="300" height="300" rx="10" fill="white" stroke="#E5E7EB" stroke-width="2"/>
  
  <!-- People -->
  <circle cx="150" cy="120" r="20" fill="#374151"/>
  <rect x="140" y="140" width="20" height="60" fill="#374151"/>
  
  <circle cx="200" cy="120" r="20" fill="#3B82F6"/>
  <rect x="190" y="140" width="20" height="60" fill="#3B82F6"/>
  
  <circle cx="250" cy="120" r="20" fill="#8B5CF6"/>
  <rect x="240" y="140" width="20" height="60" fill="#8B5CF6"/>
  
  <!-- Document -->
  <rect x="300" y="100" width="80" height="100" fill="white" stroke="#E5E7EB" stroke-width="2"/>
  <line x1="310" y1="120" x2="370" y2="120" stroke="#9CA3AF" stroke-width="2"/>
  <line x1="310" y1="140" x2="370" y2="140" stroke="#9CA3AF" stroke-width="2"/>
  <line x1="310" y1="160" x2="370" y2="160" stroke="#9CA3AF" stroke-width="2"/>
  <line x1="310" y1="180" x2="350" y2="180" stroke="#9CA3AF" stroke-width="2"/>
  
  <!-- Connection Lines -->
  <line x1="150" y1="220" x2="350" y2="220" stroke="#9CA3AF" stroke-width="2" stroke-dasharray="5 5"/>
  <line x1="200" y1="220" x2="200" y2="250" stroke="#9CA3AF" stroke-width="2" stroke-dasharray="5 5"/>
  <line x1="300" y1="220" x2="300" y2="250" stroke="#9CA3AF" stroke-width="2" stroke-dasharray="5 5"/>
  
  <!-- Bottom Elements -->
  <rect x="150" y="250" width="100" height="60" rx="5" fill="#3B82F6" opacity="0.2"/>
  <rect x="270" y="250" width="100" height="60" rx="5" fill="#8B5CF6" opacity="0.2"/>
</svg>

