<svg width="400" height="300" viewBox="0 0 400 300" fill="none" xmlns="http://www.w3.org/2000/svg">
  <rect x="50" y="50" width="300" height="200" rx="10" fill="white" stroke="#E5E7EB" stroke-width="2"/>
  <rect x="70" y="70" width="260" height="160" rx="5" fill="#F9FAFB"/>
  
  <!-- Person -->
  <rect x="30" y="150" width="20" height="80" fill="#374151"/>
  <circle cx="40" cy="130" r="20" fill="#374151"/>
  
  <!-- Chart Bars -->
  <rect x="100" y="180" width="20" height="30" fill="#3B82F6"/>
  <rect x="130" y="160" width="20" height="50" fill="#3B82F6"/>
  <rect x="160" y="140" width="20" height="70" fill="#3B82F6"/>
  <rect x="190" y="120" width="20" height="90" fill="#3B82F6"/>
  <rect x="220" y="100" width="20" height="110" fill="#3B82F6"/>
  
  <!-- Pie Chart -->
  <circle cx="300" cy="150" r="40" fill="white" stroke="#E5E7EB" stroke-width="2"/>
  <path d="M300 110 A40 40 0 0 1 340 150 L300 150 Z" fill="#3B82F6"/>
  <path d="M300 150 A40 40 0 0 1 260 150 L300 150 Z" fill="#8B5CF6"/>
  <path d="M300 150 A40 40 0 0 1 300 190 L300 150 Z" fill="#10B981"/>
</svg>

